<mxfile host="Electron" modified="2023-08-13T09:41:51.622Z" agent="Mozilla/5.0 (Windows NT 10.0; Win64; x64) AppleWebKit/537.36 (KHTML, like Gecko) draw.io/21.6.5 Chrome/114.0.5735.243 Electron/25.3.1 Safari/537.36" etag="LfejN0bizHeKJ42E7LOl" version="21.6.5" type="device">
  <diagram name="Page-1" id="wtc-6D1v0B_cc8SGLfe6">
    <mxGraphModel dx="2943" dy="1689" grid="1" gridSize="10" guides="1" tooltips="1" connect="1" arrows="1" fold="1" page="1" pageScale="1" pageWidth="850" pageHeight="1100" math="0" shadow="0">
      <root>
        <mxCell id="0" />
        <mxCell id="1" parent="0" />
        <mxCell id="Txe2EtUqW9asjZ5p_r8n-2" value="&lt;font style=&quot;font-size: 22px;&quot;&gt;Index&lt;/font&gt;" style="strokeWidth=2;html=1;shape=mxgraph.flowchart.start_1;whiteSpace=wrap;" vertex="1" parent="1">
          <mxGeometry x="295" y="160" width="160" height="90" as="geometry" />
        </mxCell>
        <mxCell id="Txe2EtUqW9asjZ5p_r8n-4" value="&lt;font style=&quot;font-size: 22px;&quot;&gt;About Us&lt;/font&gt;" style="rounded=1;whiteSpace=wrap;html=1;absoluteArcSize=1;arcSize=14;strokeWidth=2;" vertex="1" parent="1">
          <mxGeometry x="20" y="340" width="190" height="100" as="geometry" />
        </mxCell>
        <mxCell id="Txe2EtUqW9asjZ5p_r8n-5" value="&lt;font style=&quot;font-size: 22px;&quot;&gt;Help&lt;/font&gt;" style="rounded=1;whiteSpace=wrap;html=1;absoluteArcSize=1;arcSize=14;strokeWidth=2;" vertex="1" parent="1">
          <mxGeometry x="550" y="340" width="190" height="100" as="geometry" />
        </mxCell>
        <mxCell id="Txe2EtUqW9asjZ5p_r8n-6" value="&lt;font style=&quot;font-size: 22px;&quot;&gt;Contact&lt;/font&gt;" style="rounded=1;whiteSpace=wrap;html=1;absoluteArcSize=1;arcSize=14;strokeWidth=2;" vertex="1" parent="1">
          <mxGeometry x="280" y="340" width="190" height="100" as="geometry" />
        </mxCell>
        <mxCell id="Txe2EtUqW9asjZ5p_r8n-12" value="" style="endArrow=classic;html=1;rounded=0;entryX=0.5;entryY=0;entryDx=0;entryDy=0;exitX=0.5;exitY=1;exitDx=0;exitDy=0;exitPerimeter=0;" edge="1" parent="1" source="Txe2EtUqW9asjZ5p_r8n-2" target="Txe2EtUqW9asjZ5p_r8n-6">
          <mxGeometry width="50" height="50" relative="1" as="geometry">
            <mxPoint x="190" y="830" as="sourcePoint" />
            <mxPoint x="240" y="780" as="targetPoint" />
          </mxGeometry>
        </mxCell>
        <mxCell id="Txe2EtUqW9asjZ5p_r8n-13" value="" style="endArrow=classic;html=1;rounded=0;entryX=0.585;entryY=-0.015;entryDx=0;entryDy=0;entryPerimeter=0;" edge="1" parent="1" target="Txe2EtUqW9asjZ5p_r8n-5">
          <mxGeometry width="50" height="50" relative="1" as="geometry">
            <mxPoint x="380" y="290" as="sourcePoint" />
            <mxPoint x="385" y="350" as="targetPoint" />
            <Array as="points">
              <mxPoint x="660" y="290" />
            </Array>
          </mxGeometry>
        </mxCell>
        <mxCell id="Txe2EtUqW9asjZ5p_r8n-14" value="" style="endArrow=classic;html=1;rounded=0;entryX=0.5;entryY=0;entryDx=0;entryDy=0;" edge="1" parent="1" target="Txe2EtUqW9asjZ5p_r8n-4">
          <mxGeometry width="50" height="50" relative="1" as="geometry">
            <mxPoint x="380" y="290" as="sourcePoint" />
            <mxPoint x="671" y="349" as="targetPoint" />
            <Array as="points">
              <mxPoint x="115" y="290" />
            </Array>
          </mxGeometry>
        </mxCell>
        <mxCell id="Txe2EtUqW9asjZ5p_r8n-15" value="&lt;font style=&quot;font-size: 22px;&quot;&gt;Fig: Flowchart_tutoraial1_Banish&lt;/font&gt;" style="text;html=1;strokeColor=none;fillColor=none;align=center;verticalAlign=middle;whiteSpace=wrap;rounded=0;" vertex="1" parent="1">
          <mxGeometry x="200" y="490" width="350" height="30" as="geometry" />
        </mxCell>
      </root>
    </mxGraphModel>
  </diagram>
</mxfile>
